# xmcd
#
# Track frame offsets:
#	150
#	17568
#	37808
#	60228
#	77534
#	106660
#	129800
#	162770
#	183216
#
# Disc length: 2759 seconds
# Revision: 0
# Processed by: cddbd v1.5.2PL0 Copyright (c) Steve Scherf et al.
# Submitted via: dBpowerAMP V12.0
#
DISCID=500ac509
DTITLE=Eric Burdon and Jimmy Witherspoon - Black and White Blues [Avenue Records/UMe] (s)
DYEAR=2015
DGENRE=Blues
TTITLE0=Driftin' - Once Upon a Time
TTITLE1=Steamroller.
TTITLE2=The Laws Must Change
TTITLE3=Have Mercy Judge
TTITLE4=Goin' Down Slow
TTITLE5=Soledad
TTITLE6=Home Dream
TTITLE7=Headin' for Home
TTITLE8=The Time Has Come
EXTD=
EXTT0=
EXTT1=
EXTT2=
EXTT3=
EXTT4=
EXTT5=
EXTT6=
EXTT7=
EXTT8=
PLAYORDER=
